<svg xmlns="http://www.w3.org/2000/svg" width="14" height="14" fill="none" viewBox="0 0 14 14">
  <g clip-path="url(#a)">
    <path fill="#fff" fill-opacity=".85" d="m13.937 10.422-.01-9.48c0-.537-.349-.914-.915-.914H3.52a.862.862 0 0 0-.887.858c0 .452.405.838.849.838h3.284l4.604-.15L9.615 3.11l-9.35 9.357A.856.856 0 0 0 0 13.06c0 .452.406.876.878.876a.794.794 0 0 0 .594-.255l9.37-9.347 1.557-1.762-.17 4.4v3.487c0 .443.387.857.85.857.452 0 .858-.386.858-.895Z"/>
  </g>
  <defs>
    <clipPath id="a">
      <path fill="#fff" d="M0 0h13.937v13.937H0z"/>
    </clipPath>
  </defs>
</svg>
