<svg xmlns="http://www.w3.org/2000/svg" width="27" height="18" fill="none" viewBox="0 0 27 18">
  <path fill="#fff" fill-opacity=".85" d="M.906 17.979h.639c.543 0 .906-.352.906-.906v-1.577c.117.031.469.053.724.053h20.65c.256 0 .607-.021.724-.053v1.577c0 .554.363.906.906.906h.64c.553 0 .905-.352.905-.906v-7.3c0-2.036-1.108-3.134-3.143-3.134H3.143C1.108 6.64 0 7.737 0 9.773v7.3c0 .554.352.906.906.906Zm1.225-3.986c-.224 0-.362-.16-.362-.416v-4.05c0-.81.533-1.332 1.364-1.332h20.745c.82 0 1.353.523 1.353 1.333v4.05c0 .255-.138.415-.362.415H2.131Zm.64-7.13h2.802V4.668c0-.991.554-1.535 1.566-1.535h3.74c1.002 0 1.556.544 1.556 1.535v2.195h2.13V4.668c0-.991.555-1.535 1.556-1.535h3.74c1.012 0 1.566.544 1.566 1.535v2.195h2.803V2.984C24.23 1.012 23.175 0 21.257 0H5.743C3.836 0 2.77 1.012 2.77 2.984v3.88Z"/>
</svg>
