<svg xmlns="http://www.w3.org/2000/svg" width="23" height="19" fill="none" viewBox="0 0 23 19">
  <g clip-path="url(#a)">
    <path fill="#17CF96" d="M0 17.283c0 .838.56 1.165 1.17 1.165.352 0 .653-.204 1.046-.44 1.14-.766 2.548-1.236 3.987-1.226a6.014 6.014 0 0 1 4.132 1.656c.456.409.787.542 1.17.542.373 0 .715-.133 1.16-.542a6.068 6.068 0 0 1 4.142-1.656c1.44-.01 2.838.46 3.977 1.227.393.235.694.44 1.056.44.6 0 1.16-.328 1.16-1.166V3.413c0-.173-.01-.316-.124-.49C21.954 1.34 19.614 0 16.766 0c-2.258 0-4.215.89-5.26 2.146C10.458.89 8.491 0 6.244 0c-2.859 0-5.2 1.339-6.12 2.923a.868.868 0 0 0-.125.49v13.87Zm1.667-.869V3.65c.84-1.196 2.662-2.003 4.578-2.003 1.967 0 3.686.817 4.421 2.064v12.878c-1.056-.828-2.702-1.451-4.421-1.451-1.802 0-3.48.5-4.578 1.277Zm10.667.174V3.71c.735-1.247 2.464-2.064 4.432-2.064 1.905 0 3.728.807 4.567 2.003v12.765c-1.098-.777-2.775-1.277-4.567-1.277-1.73 0-3.376.623-4.432 1.45Z"/>
  </g>
  <defs>
    <clipPath id="a">
      <path fill="#fff" d="M0 0h23v19H0z"/>
    </clipPath>
  </defs>
</svg>
