<svg xmlns="http://www.w3.org/2000/svg" width="14" height="23" fill="none" viewBox="0 0 14 23">
  <g clip-path="url(#a)">
    <path fill="#fff" fill-opacity=".85" d="M3.441 21.62c.82 0 1.328-.438 1.319-1.202l-.196-10.47c0-.327.147-.569.45-.7 1.288-.54 1.845-1.109 1.777-2.74L6.517.782C6.497.373 6.244.14 5.843.14c-.38 0-.615.242-.615.662l.069 5.566c0 .326-.215.531-.537.531-.332 0-.567-.196-.567-.503L4.096.634C4.086.234 3.842 0 3.44 0c-.4 0-.634.233-.644.634l-.098 5.762c0 .307-.234.503-.566.503-.322 0-.547-.205-.547-.531L1.654.802c0-.42-.224-.662-.615-.662-.4 0-.654.233-.674.643L.102 6.507C.024 8.14.58 8.707 1.869 9.248c.303.131.45.373.45.7l-.186 10.47c-.01.764.488 1.202 1.308 1.202Zm7.636-8.13-.205 6.88c-.029.812.489 1.25 1.299 1.25.83 0 1.338-.4 1.338-1.146V.699c0-.475-.342-.699-.694-.699-.37 0-.615.186-.927.625-1.572 2.107-2.607 6.05-2.607 9.78v.456c0 .644.244 1.12.732 1.427l.576.373c.352.233.508.494.488.83Z"/>
  </g>
  <defs>
    <clipPath id="a">
      <path fill="#fff" d="M.092 0h13.417v23H.092z"/>
    </clipPath>
  </defs>
</svg>
