<svg xmlns="http://www.w3.org/2000/svg" width="21" height="21" fill="none" viewBox="0 0 21 21">
  <g clip-path="url(#a)">
    <path fill="#fff" fill-opacity=".85" d="M0 7.362c0 4.716 3.775 9.354 9.739 13.34.222.143.539.298.761.298.222 0 .54-.155.772-.299C17.225 16.716 21 12.078 21 7.361 21 3.444 18.43.676 15.005.676c-1.957 0-3.543.974-4.505 2.469A5.25 5.25 0 0 0 5.995.675C2.57.675 0 3.443 0 7.362Zm1.702 0c0-2.945 1.82-4.904 4.272-4.904 1.988 0 3.13 1.295 3.807 2.402.285.443.465.564.719.564.254 0 .412-.132.719-.564.73-1.085 1.83-2.402 3.807-2.402 2.453 0 4.272 1.959 4.272 4.904 0 4.118-4.156 8.557-8.576 11.634-.106.078-.18.133-.222.133-.042 0-.116-.055-.211-.133C5.858 15.92 1.702 11.48 1.702 7.362Z"/>
  </g>
  <defs>
    <clipPath id="a">
      <path fill="#fff" d="M0 0h21v21H0z"/>
    </clipPath>
  </defs>
</svg>
