<svg xmlns="http://www.w3.org/2000/svg" width="27" height="23" fill="none" viewBox="0 0 27 23">
  <g clip-path="url(#a)">
    <path fill="#fff" d="M10.096 21.219v-6.425c0-.502.339-.83.841-.83h4.229c.513 0 .83.328.83.83v6.425h-5.9Zm-6.687-.645c0 1.52.918 2.404 2.458 2.404h14.369c1.54 0 2.447-.885 2.447-2.404V11.9l-8.981-7.53c-.415-.35-.907-.34-1.312 0l-8.98 7.529v8.675ZM.939 11.67c.307 0 .558-.164.787-.35l10.938-9.188a.634.634 0 0 1 .382-.153.61.61 0 0 1 .383.153l10.948 9.189c.218.185.47.35.776.35.59 0 .94-.427.94-.875a.881.881 0 0 0-.35-.71L14.357.525C13.942.174 13.494 0 13.047 0c-.449 0-.897.175-1.312.524L.35 10.085a.914.914 0 0 0-.35.71c0 .448.35.874.94.874Zm19.22-5.802 2.743 2.317V3.256c0-.48-.306-.787-.787-.787h-1.17c-.469 0-.786.306-.786.787v2.611Z"/>
  </g>
  <defs>
    <clipPath id="a">
      <path fill="#fff" d="M0 0h26.092v23H0z"/>
    </clipPath>
  </defs>
</svg>
