<svg xmlns="http://www.w3.org/2000/svg" width="14" height="25" fill="none" viewBox="0 0 14 25">
  <g clip-path="url(#a)">
    <path fill="#567873" d="M6.272 24.59c.44.35 1.037.4 1.456.01l3.235-3.083c.409-.4.388-.998-.01-1.387L9.33 18.593l2.366-2.246c.409-.379.388-.988-.01-1.387l-2.189-2.096C12.377 11.547 14 9.311 14 6.657 14 2.974 10.87 0 7.005 0 3.11 0 0 2.954 0 6.657c0 2.674 1.613 5.05 4.157 6.117v9.422c0 .329.105.708.408.968l1.707 1.427Zm.733-1.576-1.162-1.098v-10.3c-2.46-.528-4.168-2.554-4.168-4.96 0-2.794 2.377-5.05 5.33-5.05 2.943 0 5.31 2.256 5.31 5.05 0 2.386-1.718 4.432-4.346 5.03v2.017l2.052 1.966-2.22 2.085v1.657l1.487 1.397-2.283 2.206Zm0-16.657c.932 0 1.697-.728 1.697-1.626 0-.889-.765-1.607-1.697-1.607-.953 0-1.696.718-1.696 1.607 0 .898.754 1.626 1.696 1.626Z"/>
  </g>
  <defs>
    <clipPath id="a">
      <path fill="#fff" d="M0 0h14v25H0z"/>
    </clipPath>
  </defs>
</svg>
