<svg xmlns="http://www.w3.org/2000/svg" width="21" height="31" fill="none" viewBox="0 0 21 31">
  <g clip-path="url(#a)">
    <path fill="#000" fill-opacity=".85" d="M2.459 11.278c.417 0 .78-.347.78-.764a.786.786 0 0 0-.78-.773H.754c-.408 0-.754.356-.754.773 0 .408.346.764.754.764H2.46Zm1.82-5.906a.758.758 0 0 0 1.073 0 .759.759 0 0 0 0-1.074L4.154 3.08c-.284-.293-.781-.293-1.083 0a.767.767 0 0 0 0 1.075l1.207 1.216Zm5.458-2.894c0 .408.346.763.763.763a.777.777 0 0 0 .772-.764V.774A.785.785 0 0 0 10.5 0a.777.777 0 0 0-.763.773v1.704Zm5.902 1.82a.759.759 0 1 0 1.074 1.074l1.216-1.216a.767.767 0 0 0 0-1.075.766.766 0 0 0-1.074 0L15.64 4.298Zm4.589 6.98a.783.783 0 0 0 .772-.764.785.785 0 0 0-.772-.773h-1.704a.777.777 0 0 0-.764.773c0 .417.355.764.764.764h1.704ZM10.5 4.893c-3.142 0-5.6 2.282-5.6 5.186 0 3.214 1.917 4.013 2.45 9.563.035.311.203.507.532.507h5.236c.329 0 .497-.196.524-.507.542-5.55 2.468-6.349 2.468-9.563 0-2.904-2.477-5.186-5.61-5.186Zm0 1.305c2.334 0 4.305 1.625 4.305 3.88 0 2.38-1.58 2.931-2.343 8.765H8.538c-.763-5.834-2.334-6.384-2.334-8.764 0-2.256 1.962-3.88 4.296-3.88ZM7.855 21.96h5.29a.497.497 0 0 0 .515-.506.497.497 0 0 0-.515-.506h-5.29a.495.495 0 0 0-.506.506c0 .293.222.506.506.506Zm2.645 2.433c1.305 0 2.414-.657 2.476-1.634H8.024c.053.977 1.162 1.634 2.476 1.634Z"/>
  </g>
  <defs>
    <clipPath id="a">
      <path fill="#fff" d="M0 0h21v31H0z"/>
    </clipPath>
  </defs>
</svg>
