<?xml version="1.0" encoding="UTF-8"?>
<!--Generator: Apple Native CoreSVG 326-->
<!DOCTYPE svg
PUBLIC "-//W3C//DTD SVG 1.1//EN"
       "http://www.w3.org/Graphics/SVG/1.1/DTD/svg11.dtd">
<svg version="1.1" xmlns="http://www.w3.org/2000/svg" xmlns:xlink="http://www.w3.org/1999/xlink" viewBox="0 0 103.552 104.602">
 <g>
  <rect height="104.602" opacity="0" width="103.552" x="0" y="0"/>
  <path d="M52.3865 31.7688L45.8923 38.3606C52.3377 38.8977 56.5369 40.802 59.7107 43.9758C68.2556 52.5208 68.2068 64.6301 59.7595 73.0774L43.7927 88.9954C35.2966 97.4915 23.2849 97.5403 14.74 89.0442C6.19508 80.4504 6.24391 68.4387 14.74 59.9426L24.3103 50.3723C22.9431 47.2962 22.6013 43.634 23.1384 40.4602L8.78297 54.7669C-2.88695 66.4856-2.98461 83.0872 8.8318 94.9036C20.697 106.769 37.2986 106.671 48.9685 95.0012L65.6677 78.2532C77.3865 66.5344 77.4841 49.9329 65.6189 38.1165C62.5427 35.0403 58.6365 32.843 52.3865 31.7688ZM51.1658 72.0032L57.6599 65.4114C51.2146 64.9231 47.0154 62.97 43.8416 59.7962C35.2966 51.2512 35.3455 39.1419 43.7927 30.6946L59.7107 14.7766C68.2556 6.28053 80.2673 6.2317 88.8123 14.7766C97.3572 23.3215 97.2595 35.3821 88.8123 43.8294L79.242 53.3997C80.6091 56.5247 80.9021 60.1379 80.4138 63.3118L94.7693 49.0051C106.439 37.2864 106.537 20.7337 94.7205 8.86842C82.8552-2.99682 66.2537-2.89916 54.5349 8.81959L37.8845 25.5188C26.1658 37.2376 26.0681 53.8391 37.9334 65.6555C41.0095 68.7317 44.9158 70.929 51.1658 72.0032Z" fill="white" fill-opacity="0.85"/>
 </g>
</svg>
