<svg xmlns="http://www.w3.org/2000/svg" width="24" height="22" fill="none" viewBox="0 0 24 22">
  <g clip-path="url(#a)">
    <path fill="#fff" fill-opacity=".85" d="M.861 10.694c.28 0 .51-.15.721-.32l10.023-8.421a.58.58 0 0 1 .35-.14c.121 0 .241.05.351.14l10.034 8.42c.2.17.43.321.71.321.541 0 .862-.39.862-.8a.809.809 0 0 0-.32-.652L13.156.481C12.777.16 12.367 0 11.956 0c-.41 0-.821.16-1.202.48L.32 9.243c-.22.18-.32.42-.32.651 0 .41.32.801.861.801Zm17.613-5.317L20.988 7.5V2.984c0-.44-.28-.721-.721-.721h-1.072c-.43 0-.72.28-.72.721v2.393ZM5.187 21.057h13.548c1.422 0 2.253-.81 2.253-2.212V7.75l-1.612-1.09v11.785c0 .651-.35 1.002-.982 1.002H5.527c-.64 0-.991-.35-.991-1.002V6.67L2.924 7.75v11.095c0 1.412.831 2.213 2.263 2.213Z"/>
    <path fill="#fff" fill-opacity=".85" d="M9.092 16.422c0 .48.51.67.911.44l6.359-3.745a.556.556 0 0 0-.01-.97L10.003 8.41c-.4-.24-.911-.06-.911.44v7.57Z"/>
  </g>
  <defs>
    <clipPath id="a">
      <path fill="#fff" d="M0 0h23.912v21.078H0z"/>
    </clipPath>
  </defs>
</svg>
