<svg xmlns="http://www.w3.org/2000/svg" width="13" height="13" fill="none" viewBox="0 0 13 13">
  <g clip-path="url(#a)">
    <path fill="#fff" fill-opacity=".85" d="M6.5 12.644c3.588 0 6.5-2.754 6.5-6.147 0-1.904-.88-3.465-2.11-4.52-.56-.488-1.287.247-.726.741 1.084.94 1.753 2.278 1.753 3.779 0 2.833-2.422 5.123-5.417 5.123-2.995 0-5.417-2.29-5.417-5.123 0-1.513.676-2.845 1.753-3.785.567-.5-.153-1.205-.72-.73A5.895 5.895 0 0 0 0 6.498c0 3.393 2.912 6.147 6.5 6.147Zm0-6.207a.491.491 0 0 0 .516-.513V.512C7.016.205 6.806 0 6.5 0c-.306 0-.51.205-.51.512v5.412c0 .302.204.513.51.513Z"/>
  </g>
  <defs>
    <clipPath id="a">
      <path fill="#fff" d="M0 0h13v13H0z"/>
    </clipPath>
  </defs>
</svg>
