<svg xmlns="http://www.w3.org/2000/svg" width="24" height="23" fill="none" viewBox="0 0 24 23">
  <g clip-path="url(#a)">
    <path fill="#17CF96" d="M15.022 23h5.684c1.587 0 2.386-.786 2.386-2.433v-5.591c0-1.635-.8-2.434-2.386-2.434h-5.684c-1.6 0-2.4.799-2.4 2.434v5.59c0 1.648.8 2.434 2.4 2.434ZM2.478 23h5.697c1.587 0 2.387-.786 2.387-2.433v-5.591c0-1.635-.8-2.434-2.387-2.434H2.478c-1.586 0-2.386.799-2.386 2.434v5.59c0 1.648.8 2.434 2.386 2.434Zm12.544-12.517h5.684c1.587 0 2.386-.799 2.386-2.446V2.458c0-1.647-.8-2.433-2.386-2.433h-5.684c-1.6 0-2.4.786-2.4 2.433v5.579c0 1.647.8 2.446 2.4 2.446Zm-12.544 0h5.697c1.587 0 2.387-.799 2.387-2.446V2.458c0-1.647-.8-2.433-2.387-2.433H2.478C.892.025.092.811.092 2.458v5.579c0 1.647.8 2.446 2.386 2.446Z"/>
  </g>
  <defs>
    <clipPath id="a">
      <path fill="#fff" d="M.092 0h23v23h-23z"/>
    </clipPath>
  </defs>
</svg>
