<svg xmlns="http://www.w3.org/2000/svg" width="12" height="12" fill="none" viewBox="0 0 12 12">
  <path fill="#fff" fill-opacity=".85" d="M6.003 1.26a.63.63 0 1 0 0-1.26.626.626 0 0 0-.63.63c0 .351.278.63.63.63Zm3.802 1.569a.625.625 0 0 0 .625-.63.625.625 0 0 0-.625-.63.626.626 0 0 0-.63.63c0 .351.278.63.63.63Zm1.57 3.798a.625.625 0 0 0 .625-.63.625.625 0 0 0-.625-.63.626.626 0 0 0-.63.63c0 .351.279.63.63.63Zm-1.57 3.798a.625.625 0 0 0 .625-.63.625.625 0 0 0-.625-.63.626.626 0 0 0-.63.63c0 .351.278.63.63.63Zm-3.802 1.569a.63.63 0 1 0 0-1.26.626.626 0 0 0-.63.63c0 .351.278.63.63.63Zm-3.802-1.569c.352 0 .63-.279.63-.63a.626.626 0 0 0-.63-.63.626.626 0 0 0-.63.63c0 .351.278.63.63.63ZM.631 6.627c.351 0 .63-.279.63-.63a.626.626 0 0 0-.63-.63.626.626 0 0 0-.631.63c0 .351.279.63.63.63ZM2.2 2.829c.352 0 .63-.279.63-.63a.626.626 0 0 0-.63-.63.626.626 0 0 0-.63.63c0 .351.278.63.63.63ZM6.003 9.08a3.086 3.086 0 1 0 0-6.172 3.096 3.096 0 0 0-3.092 3.089A3.09 3.09 0 0 0 6.003 9.08Zm0-.92c-1.2 0-2.17-.964-2.17-2.163a2.168 2.168 0 1 1 4.335 0c0 1.2-.964 2.162-2.165 2.162Z"/>
</svg>
