<svg xmlns="http://www.w3.org/2000/svg" width="33" height="31" fill="none" viewBox="0 0 33 31">
  <path fill="#fff" fill-opacity=".85" d="M22.865 22.163a6.402 6.402 0 0 1-1.203 3.735h-2.614a4.563 4.563 0 0 0 1.943-3.735c0-2.498-2.024-4.56-4.491-4.56-2.467 0-4.492 2.062-4.492 4.56 0 1.542.772 2.913 1.944 3.735h-2.614a6.402 6.402 0 0 1-1.203-3.735c0-3.535 2.886-6.457 6.365-6.457 3.48 0 6.365 2.922 6.365 6.457Zm-14.848-.306c.012.53-.442.954-1.047.954H4.108c-.594 0-1.036-.424-1.036-.954s.442-.955 1.036-.955H6.97c.605 0 1.036.424 1.047.955Zm21.911 0c0 .53-.43.954-1.036.954H26.03c-.605 0-1.036-.424-1.047-.954-.012-.53.442-.955 1.047-.955h2.862c.605 0 1.036.424 1.036.955Zm-21.515-9.25 2.024 2.05c.42.425.42 1.05.059 1.426-.361.377-.978.366-1.408-.07l-2.025-2.05c-.43-.437-.43-1.05-.058-1.414.372-.366.966-.378 1.408.058Zm17.582-.058c.36.377.372.977-.058 1.413l-2.025 2.05c-.43.436-1.035.436-1.408.071-.372-.365-.36-1.001.058-1.425l2.037-2.05c.43-.437 1.035-.437 1.396-.06ZM2.606 27.783h27.8c.546 0 1.011-.424 1.011-.942 0-.519-.465-.943-1.012-.943H2.606c-.558 0-1.012.424-1.012.943 0 .518.454.942 1.012.942ZM16.5 12.808c.512 0 .954-.46.954-1.037V7.352l-.14-1.779.85 1.002L19.63 8.07a.878.878 0 0 0 .617.271c.465 0 .791-.33.791-.79 0-.247-.082-.435-.28-.624L17.129 3.5c-.244-.223-.419-.306-.628-.306-.21 0-.384.083-.628.306l-3.63 3.43c-.199.188-.28.376-.28.624 0 .46.326.789.791.789a.878.878 0 0 0 .617-.271l1.582-1.614.733-.884-.128 1.78v4.418c0 .577.43 1.037.943 1.037Z"/>
</svg>
