<svg xmlns="http://www.w3.org/2000/svg" width="27" height="21" fill="none" viewBox="0 0 27 21">
  <path fill="#fff" fill-opacity=".212" d="M2.808 15.742c-.67 0-1.07-.388-1.07-1.028V2.718c0-.64.4-1.028 1.07-1.028h21.384c.67 0 1.07.388 1.07 1.028v11.996c0 .64-.4 1.028-1.07 1.028H2.808Z"/>
  <path fill="#fff" fill-opacity=".85" d="M2.776 17.432h21.448c1.729 0 2.776-1.029 2.776-2.697V2.697C27 1.028 25.953 0 24.224 0H2.776C1.058 0 0 1.028 0 2.697v12.038c0 1.668 1.058 2.697 2.776 2.697Zm.032-1.69c-.67 0-1.07-.388-1.07-1.028V2.718c0-.64.4-1.028 1.07-1.028h21.384c.67 0 1.07.388 1.07 1.028v11.996c0 .64-.4 1.028-1.07 1.028H2.808Zm5.26 5.247h10.864c.476 0 .875-.377.875-.85 0-.472-.4-.85-.875-.85H8.068c-.476 0-.875.378-.875.85 0 .473.4.85.875.85Z"/>
</svg>
